<svg xmlns="http://www.w3.org/2000/svg" version="1.1" xmlns:xlink="http://www.w3.org/1999/xlink" xmlns:svgjs="http://svgjs.com/svgjs" width="1000" height="1000"><rect width="1000" height="1000" rx="500" ry="500" fill="#161616"></rect><g transform="matrix(33.333333333333336,0,0,33.333333333333336,49.99919249614078,49.99970128138858)"><svg xmlns="http://www.w3.org/2000/svg" version="1.1" xmlns:xlink="http://www.w3.org/1999/xlink" xmlns:svgjs="http://svgjs.com/svgjs" width="27" height="27"><svg width="27" height="27" viewBox="0 0 27 27" fill="none" xmlns="http://www.w3.org/2000/svg">
<path fill-rule="evenodd" clip-rule="evenodd" d="M13.5 26.7C17.0009 26.7 20.3584 25.3093 22.8339 22.8338C25.3093 20.3583 26.7 17.0009 26.7 13.5C26.7 9.99916 25.3093 6.64169 22.8339 4.16621C20.3584 1.69073 17.0009 0.300018 13.5 0.300018C9.99919 0.300018 6.64172 1.69073 4.16624 4.16621C1.69076 6.64169 0.300049 9.99916 0.300049 13.5C0.300049 17.0009 1.69076 20.3583 4.16624 22.8338C6.64172 25.3093 9.99919 26.7 13.5 26.7ZM8.55005 11.85C8.98766 11.85 9.40734 11.6762 9.71677 11.3667C10.0262 11.0573 10.2 10.6376 10.2 10.2C10.2 9.76241 10.0262 9.34273 9.71677 9.03329C9.40734 8.72386 8.98766 8.55002 8.55005 8.55002C8.11244 8.55002 7.69276 8.72386 7.38332 9.03329C7.07389 9.34273 6.90005 9.76241 6.90005 10.2C6.90005 10.6376 7.07389 11.0573 7.38332 11.3667C7.69276 11.6762 8.11244 11.85 8.55005 11.85ZM20.1 10.2C20.1 10.6376 19.9262 11.0573 19.6168 11.3667C19.3073 11.6762 18.8877 11.85 18.45 11.85C18.0124 11.85 17.5928 11.6762 17.2833 11.3667C16.9739 11.0573 16.8 10.6376 16.8 10.2C16.8 9.76241 16.9739 9.34273 17.2833 9.03329C17.5928 8.72386 18.0124 8.55002 18.45 8.55002C18.8877 8.55002 19.3073 8.72386 19.6168 9.03329C19.9262 9.34273 20.1 9.76241 20.1 10.2ZM19.3344 19.3328C19.4876 19.1795 19.6091 18.9975 19.692 18.7972C19.7749 18.597 19.8175 18.3824 19.8174 18.1656C19.8173 17.9489 19.7746 17.7343 19.6916 17.5341C19.6086 17.3339 19.4869 17.152 19.3336 16.9988C19.1803 16.8456 18.9983 16.7242 18.7981 16.6413C18.5978 16.5584 18.3832 16.5158 18.1665 16.5159C17.9498 16.516 17.7352 16.5587 17.535 16.6417C17.3348 16.7247 17.1529 16.8464 16.9997 16.9997C16.0714 17.9276 14.8126 18.449 13.5 18.449C12.1875 18.449 10.9287 17.9276 10.0004 16.9997C9.69101 16.6901 9.2713 16.516 8.83361 16.5159C8.39591 16.5157 7.97608 16.6895 7.66647 16.9988C7.35687 17.3082 7.18284 17.7279 7.18269 18.1656C7.18253 18.6033 7.35626 19.0232 7.66565 19.3328C8.43176 20.0991 9.34133 20.707 10.3424 21.1217C11.3435 21.5364 12.4165 21.7499 13.5 21.7499C14.5836 21.7499 15.6566 21.5364 16.6577 21.1217C17.6588 20.707 18.5683 20.0991 19.3344 19.3328Z" fill="white"></path>
</svg></svg></g></svg>