<svg width="20" height="20" viewBox="0 0 20 20" fill="none" xmlns="http://www.w3.org/2000/svg">
<path fill-rule="evenodd" clip-rule="evenodd" d="M0 10C0 4.48 4.47 0 9.99 0C15.52 0 20 4.48 20 10C20 15.52 15.52 20 9.99 20C4.47 20 0 15.52 0 10ZM11.97 15.03C11.39 14.69 10.73 14.5 10 14.5C9.27 14.5 8.61 14.69 8.02 15.02C7.51454 14.4539 7.50984 14.4473 7.50355 14.4385C7.49739 14.4298 7.4897 14.419 7.01 13.88C7.87 13.33 8.89 13 10 13C11.11 13 12.13 13.33 12.98 13.89C12.83 14.05 12.09 14.89 11.97 15.03ZM8 7.5C8 8.32843 7.32843 9 6.5 9C5.67157 9 5 8.32843 5 7.5C5 6.67157 5.67157 6 6.5 6C7.32843 6 8 6.67157 8 7.5ZM13.5 9C14.3284 9 15 8.32843 15 7.5C15 6.67157 14.3284 6 13.5 6C12.6716 6 12 6.67157 12 7.5C12 8.32843 12.6716 9 13.5 9Z" fill="white"/>
</svg>
