<svg width="20" height="20" viewBox="0 0 20 20" fill="none" xmlns="http://www.w3.org/2000/svg">
<path fill-rule="evenodd" clip-rule="evenodd" d="M0 10C0 4.48 4.47 0 9.99 0C15.52 0 20 4.48 20 10C20 15.52 15.52 20 9.99 20C4.47 20 0 15.52 0 10ZM6.5 9C7.32843 9 8 8.32843 8 7.5C8 6.67157 7.32843 6 6.5 6C5.67157 6 5 6.67157 5 7.5C5 8.32843 5.67157 9 6.5 9ZM10 12C7.67 12 5.68 13.45 4.88 15.5H6.55C7.24 14.31 8.52 13.5 10 13.5C11.48 13.5 12.75 14.31 13.45 15.5H15.12C14.32 13.45 12.33 12 10 12ZM13.5 9C14.3284 9 15 8.32843 15 7.5C15 6.67157 14.3284 6 13.5 6C12.6716 6 12 6.67157 12 7.5C12 8.32843 12.6716 9 13.5 9Z" fill="white"/>
</svg>
